<?xml version="1.0" standalone="no"?><!DOCTYPE svg PUBLIC "-//W3C//DTD SVG 1.1//EN" "http://www.w3.org/Graphics/SVG/1.1/DTD/svg11.dtd"><svg t="1631264874228" class="icon" viewBox="0 0 1024 1024" version="1.1" xmlns="http://www.w3.org/2000/svg" p-id="11533" xmlns:xlink="http://www.w3.org/1999/xlink" width="200" height="200"><defs><style type="text/css"></style></defs><path d="M742.144 739.392a33.792 33.792 0 1 0-12.224 66.432c97.088 18.304 154.944 49.28 154.944 64.64 0 3.456-5.12 8.576-18.24 18.24-25.6 15.36-53.12 26.88-81.92 34.56-95.424 24.32-193.664 35.84-292.096 34.112a1095.296 1095.296 0 0 1-290.304-34.176 321.92 321.92 0 0 1-81.792-33.92c-15.36-10.24-20.48-15.36-20.48-18.24 0-13.696 52.8-42.56 141.568-61.376a32.512 32.512 0 0 0 25.344-41.216 30.336 30.336 0 0 0-39.04-25.6C107.008 768.448 32 809.344 32 870.656 32 965.76 236.992 1024 492.608 1024c255.552 0 459.84-58.048 459.84-153.344 0-62.976-80.192-105.536-209.6-131.072l-0.704-0.192z m-508.032-263.04l230.144 368.576a30.848 30.848 0 0 0 54.784 0l230.592-368.64a307.2 307.2 0 1 0-514.624 0h-0.896z m258.496-307.2a140.032 140.032 0 1 1 0 280 140.032 140.032 0 0 1 0-280.064z" p-id="11534" fill="#fff"></path></svg>