<svg id="图层_1" data-name="图层 1" xmlns="http://www.w3.org/2000/svg" viewBox="0 0 612 269.95"><defs><style>.cls-1{fill:#fff;}.cls-2{fill:#fff;}.cls-3{fill:#fff;}.cls-4{fill:#fff;}</style></defs><title>铁科院logo</title><path class="cls-1" d="M464.77,119.77c2.44,11.41-1,21.54-6.93,31.05-6.61,10.58-15.56,19-25.51,26.29-15.16,11.17-31.87,19.64-48.91,27.47-17.74,8.15-35.75,15.63-54.46,21.28-2.84.86-5.77,1.43-8.65,2.13a7.06,7.06,0,0,1-1.29.2c-.93.06-1.89-.16-2.15-1.11-.31-1.17.94-1.13,1.57-1.39a363.59,363.59,0,0,0,51.26-25.88c18.94-11.53,36.75-24.54,52.3-40.43,9.28-9.49,17.61-19.72,22.82-32.11,3.53-8.4,4.95-17,1.61-25.83,1.38.25,2.39,1.2,3.56,1.86C456.79,107.12,462,112.35,464.77,119.77Z"/><path class="cls-2" d="M264.31,131.82c-7.13,0-14.25,0-21.38,0-1.5,0-2.2-.18-2.1-2,.17-3.19.1-6.4,0-9.6,0-1.29.22-1.73,1.64-1.73,16,0,32,.11,48-.16,10.08-.17,14.73,6.9,15.85,13.68,1.82,11-3.5,20.35-14,24.43-1.59.62-1.72,1.05-.94,2.49,2.79,5.18,5.4,10.44,8.13,15.65.89,1.7,1.17,3.68,2.62,5.13.62.62.17,1-.62,1-5.31,0-10.62,0-15.93.08-1.16,0-1.43-.81-1.82-1.57-3.38-6.51-6.79-13-10.09-19.56a2.78,2.78,0,0,0-3-1.83c-3.12.14-6.26.15-9.38,0-1.44-.06-1.85.55-2.11,1.77-1.42,6.52-2.93,13-4.3,19.54-.28,1.32-.74,1.81-2.12,1.8-4.87-.06-9.75,0-14.62,0-1.23,0-1.8,0-1.43-1.64,2.62-11.38,5.06-22.8,7.66-34.18,1.18-5.17,5.22-8.27,10.55-8.32,2.62,0,5.24.05,7.85,0,1.29,0,1.46.46,1.21,1.54-.52,2.19-.91,4.41-1.48,6.58-.3,1.13-.19,1.55,1.11,1.53,5.89-.08,11.78,0,17.67-.12,5.58-.11,9.36-5,9.78-9,.37-3.55-1.38-5.56-5-5.59-7.27-.05-14.55,0-21.82,0Z"/><path class="cls-2" d="M354.56,131.63c-5.6,0-11.2,0-16.8,0-2.87,0-5.33,1-6.48,3.89s.33,5.3,3.32,5.85c6.42,1.18,12.86,2.29,19.28,3.46a29.28,29.28,0,0,1,8.41,2.87c6.16,3.23,9.09,8.41,9,15.24-.09,6.6-3.59,11.18-9.22,14.25a30.46,30.46,0,0,1-14.49,3.44c-10.18.12-20.37.06-30.55.16-1.24,0-1.62-.49-1.89-1.5-.91-3.36-1.75-6.74-2.83-10-.53-1.62,0-1.78,1.39-1.78,10.76,0,21.53-.05,32.29-.08a10.51,10.51,0,0,0,4.88-.9,5.34,5.34,0,0,0,3.06-5.52c-.36-2.45-2.09-3.28-4.29-3.57-6.84-.92-13.7-1.66-20.49-2.85-9.08-1.6-14.7-7.76-15-15.86-.32-9.82,4.53-16.59,13.71-19.15a35.63,35.63,0,0,1,9.69-1.28c10.11,0,20.22,0,30.33-.08,1.48,0,2.15.33,2.45,1.87.64,3.27,1.46,6.5,2.34,9.71.38,1.38.06,1.72-1.35,1.7-5.6-.07-11.2,0-16.8,0A1,1,0,0,1,354.56,131.63Z"/><path class="cls-2" d="M292.9,99.49c-.36-4.32-.69-8.5-1.07-12.67-.11-1.18-.75-1.67-1.95-1.17-.67.28-1.33.58-2,.8-3.38,1.08-4.69.37-5.56-3-.51-2,0-2.55,2.11-2.1a4.85,4.85,0,0,0,3.19-.14c.53-.24,1.14-.4,1.27-1.06s-.42-1.23-1-1.53a5,5,0,0,1-2.65-3.47c-.49-1.9-.52-3.36,1.5-4.31,1.8-.84.17-2.08.23-3.12,0-.34-.49-.69-.7-1.07-.46-.84-1.85-1.56-1.17-2.54s2.07-.58,3-.22c1.15.43,3.69-.06,2.28,2.67-.07.13.09.46.24.59,1.56,1.27,1.39,2.29-.2,3.49-.76.58-.05,1.5.49,2.08s1.23,1.47,2.16,1.18,1-1.28.87-2.05c-.55-4.39-.26-8.84-.92-13.23A12.24,12.24,0,0,1,294.18,51c.7-1.34,1.39-1.31,1.91-.14a12,12,0,0,0,2.54,3.43,3.12,3.12,0,0,1,.89,3.24c-1.11,4.44,1.85,7.44,4.25,10.56.65.84,1.79.81,2.82.92,2,.21,2.48,1.14,1.5,2.77a11.54,11.54,0,0,1-5.54,5c-4.69,1.92-4.49,2.69-4.95,7.33-.24,2.41-.13,4.88-1.3,7.15a4,4,0,0,0-.3,1.92c.21,4.29-1,8.53-.43,12.83.06.46.19,1.13-.44,1.3s-.78-.5-1-.93A12.66,12.66,0,0,1,292.9,99.49Zm6.15-25.68c-.09,1-.1,1.65.6,2s1.2-.3,1.67-.72c1-.86.82-1.9.44-3a17.24,17.24,0,0,1-1.27-3.66c-.06-.53-.29-1.29-1-1.23-.87.08-.83.93-.73,1.54C299.07,70.52,299.53,72.28,299.05,73.81Z"/><path class="cls-2" d="M224.4,46.27a16.12,16.12,0,0,0,.94,5.77c.56,2.17-.07,3.71-2.11,4.63a4.12,4.12,0,0,0-2.09,1.51q-2.82,4.89-5.53,9.85c-.26.47-.55,1.15,0,1.61a1.24,1.24,0,0,0,1.6-.19c1.91-1.62,4.29-1,6.46-1.37a1.6,1.6,0,0,1,1.84,1.71,4.11,4.11,0,0,1-1,3.42c-.35.32-.81-.16-1.1-.46-1.55-1.57-3.37-1.43-5.27-.89a22.43,22.43,0,0,0-11.4,7.63,34.66,34.66,0,0,0-6.06,9.76c-.35,1-1,1.93-2.14,1.87s-1.18-1.22-1.33-2c-.6-3-1.07-6.13-1.59-9.2-.13-.74.28-1.23.9-1.21,1.61,0,2.23-1.13,3-2.15,4.72-6.08,9.69-12,13.65-18.6,3-5,5.8-10.06,8.35-15.27.47-1,.79-1.41,1.55-.23S224.76,45.05,224.4,46.27Z"/><path class="cls-2" d="M243.49,66.48c1,1.84,1.74,3.29,2.58,4.68,1.08,1.77,2.38,3.25,4.64,3.59,1.36.21,1.72,1,.58,2a4.6,4.6,0,0,1-2.22,1.31c-3.17.61-5.85,2.45-8.84,3.48a1.82,1.82,0,0,0-1.12,1.72,8.8,8.8,0,0,0,1.74,6.26c3.6,5.27,8.91,8.46,13.75,12.25,1,.78,2.73,1.5,2.27,2.83-.4,1.16-2.2.47-3.37.62a3,3,0,0,1-3.21-1.7c-1.25-2.13-3.62-3.46-4.92-5.34-2.14-3.11-5.27-5.36-7.09-8.82-.78.43-.72,1.18-.81,1.84a65.72,65.72,0,0,1-2.14,8.42c-.42,1.55-1.2,2.82-3.12,2.79a5.89,5.89,0,0,1-4.77-2.66c-.64-.87.33-.84.87-.88,4.45-.26,6-1.76,6.48-6.13.25-2.16.71-4.29,1.06-6.43.08-.47.34-1-.21-1.39a1.11,1.11,0,0,0-1.41.17c-2.52,2-6,2.79-7.36,6.16a.92.92,0,0,1-1.21.65A3.38,3.38,0,0,1,224,90a1.06,1.06,0,0,1,.52-1.48A85.65,85.65,0,0,1,232.74,84c1.29-.57,2.28-1.49,3.5-2.11a1.77,1.77,0,0,0,.5-2.36c-.52-1-1.41-.45-2.11-.18-1.93.74-3.21,2.47-5,3.4-.64.33-1.28,1-1.93.3a1.88,1.88,0,0,1-.2-2.25c2.17-3.69,2.77-7.88,4-11.88,1-3.23,2.94-6.13,3.73-9.47.22-.94.77-.72,1.2-.13,1.48,2,1.2,5.35.23,7.66-1.51,3.56-4,6.58-5.27,10.23-.23.65-.82,1.41,0,2,.64.45,1.19-.24,1.77-.47,3.59-1.41,5.05-4.08,5.22-7.89A65.74,65.74,0,0,1,240,57.91c.49-1.94,1.59-3.57,2.22-5.43.3-.9,1-.71,1.61-.4s1.23.59.87,1.47-.53,1.51-.9,2.21a23.87,23.87,0,0,0-2.57,13.9,11.42,11.42,0,0,1-.54,3.86c-.29,1.24-.16,2,1.35,1.17a8.89,8.89,0,0,1,1-.38,1.88,1.88,0,0,1,2,.39c.4.37.25,1,.05,1.44-.34.78-1,.62-1.68.59-1.46-.06-2.8.15-3.16,1.93-.07.34-.35.69,0,1a.84.84,0,0,0,1,0c1.77-.82,3.39-1.93,5.23-2.67.94-.37.56-1.35.33-2.12-.46-1.5-1.69-2.52-2.39-3.88A7,7,0,0,1,243.49,66.48Z"/><path class="cls-2" d="M280.29,66.05a8.16,8.16,0,0,1,1.23.43c1,.61,3,.63,3,1.73.05,1.26-1.58,2.09-2.69,2.89a4.61,4.61,0,0,1-2.38,1c-2.19.18-3,1.44-2.81,3.55.08,1.14.34,1.58,1.35.78,1.53-1.2,3.18-2.3,4.14-4.1.31-.58.55-1.59,1.47-1.11s.43,1.38,0,2c-1.9,2.49-2.83,5.59-5.13,7.85a3.55,3.55,0,0,0-.84,3.08c.57,2.77-.21,5.56.32,8.31.15.79.24,1.79-.65,2.1s-1.12-.67-1.56-1.23a8.56,8.56,0,0,1-1.63-3.53c-.34-1.58-.93-1.39-1.81-.45-2.4,2.55-2.43,2.56-3.65-.76-.42-1.15-.69-2.36-1-3.54-.74-2.68.36-4.58,3.09-5,1.57-.24,2.86-.62,2.37-2.5s-2-1.81-3.5-1.16c-1.06.46-2.07,1.06-3.15,1.49-1.27.5-2.67,1.2-3.78-.22s-.58-2.7.27-4c1.34-2,3.31-3.39,5.17-4.86a10,10,0,0,0,3.16-3.52,4.92,4.92,0,0,1,2.08-1.88,23.31,23.31,0,0,0,5.3-4.5,7.94,7.94,0,0,0,2.28-5.28c0-.47-.14-1.14.47-1.32s1,.46,1.34.9a4.15,4.15,0,0,1-.16,5.41,26.68,26.68,0,0,1-5.1,5.35c-2.18,1.58-1.72,3.8-1.63,5.95,0,.2.12.54.25.57,1.8.47,3.39-.41,4.91-1.06,1.12-.48.33-1.45-.17-2.17C280.68,67,280.6,66.72,280.29,66.05Zm-7.13,4.89c0-.71.12-1.51-.6-2a1,1,0,0,0-1.19.22l-4.67,4.19c-.75.68-.59,1.29.27,1.66C269,75.93,273.12,73.17,273.16,70.94ZM274,84.78c-.06-.79,0-1.91-1-1.8-1.22.14-1.46,1.44-1.63,2.48s.72.84,1.32.94C274.09,86.64,273.91,85.6,274,84.78Z"/><path class="cls-2" d="M328.71,76.42c.92.06,1.21.86,1.81,1.23s1.14,1.12,1.91.79c.94-.42.57-1.41.5-2.14a11.78,11.78,0,0,0-.68-2.72c-1.18-3.33-2.92-6.5-2.61-10.25a18.33,18.33,0,0,0-7.75,4.61c-.41.4-1,1.17-1.64.59s-.07-1.44.39-1.9c2.34-2.3,4.27-4.95,6.49-7.34a3.26,3.26,0,0,1,4-.9c1.43.7,1.16,2.22.8,3.3-1.12,3.36-.16,6.06,1.68,9,2.49,3.91,2.31,8.42,1.46,12.83-.28,1.46-1.38,1.45-2.55.94s-1.51-.18-1.74,1.17a59.2,59.2,0,0,0-.91,11.58,2.12,2.12,0,0,1-1.32,2.1c-1,.39-1.63-.38-2.25-1-2.17-2-2.25-5-1.89-7.34.69-4.61.24-9.13.16-13.69,0-.61-.55-1.58.58-1.78s1.43.7,1.61,1.44c.39,1.62.58,3.28.9,4.91.16.79.43,1.75,1.39,1.65s1-1.11,1.2-1.88a3.07,3.07,0,0,0-.65-2.44C329,78.38,328.35,77.56,328.71,76.42Z"/><path class="cls-2" d="M356.52,63.84a5.5,5.5,0,0,0-4.61,1c-1.83,1.25-3.85,2.26-5.63,3.64-2.86,2.21-5.32,4.71-6.54,8.22-.15.45-.2,1-.9,1.06a1.3,1.3,0,0,1-1.31-.95c-1-2.93-2.34-5.78-.32-8.91a8.77,8.77,0,0,0,1.29-5.63c-.16-1.74,2.64-4.73,4.35-4.92,1-.11,1.13.37.88,1.18-.38,1.25-.8,2.48-1.08,3.75-.13.57-.39,1.38.37,1.73a1.57,1.57,0,0,0,1.75-.59,15.46,15.46,0,0,1,6.69-4.3,9.73,9.73,0,0,1,8.16.85c1.81,1.09,2.14,2.54.86,4.21a9.13,9.13,0,0,1-4.66,2.91c-.44.14-1.14.35-1.4-.15s.13-1.09.57-1.52S355.8,64.59,356.52,63.84Z"/><path class="cls-2" d="M227.13,93.65a.68.68,0,0,1-.26,1c-2.79,2.22-4.65,5.51-8.19,6.88a3.79,3.79,0,0,0-2.25,1.84c-.45,1-1.51,1.29-2.46,1.64s-1.48-.06-1.56-1.09c-.12-1.48.46-2.86.59-4.3s-.3-2.29-2-1.6a2.65,2.65,0,0,1-1.91.19,1.81,1.81,0,0,1-1.32-1.32c-.11-.79.68-.82,1.19-1a10.44,10.44,0,0,0,4.6-2.78c.52-.58.93-1.17.42-1.93s-1.21-.44-1.8.06c-.84.71-1.53.16-2.1-.37A4.13,4.13,0,0,1,208.7,88c0-.6.64-.43,1-.43.87,0,1.74.15,2.61.11a3.15,3.15,0,0,0,2.88-2,2.73,2.73,0,0,0-1.4-2.78c-1.44-.88-2.25-1.77-1.16-3.48s2.39-2.23,4.23-1.3c.65.33,1.32.61,2,.91,2.5,1.13,2.79,2.39.46,4-2.17,1.51-2.14,3.81-2.87,5.83-.37,1,.16,1.73,1.41,1.91,2.21.32,2.63,1.42,1.54,3.45a5.73,5.73,0,0,0-.69,1.8c-.19,1.4.24,2.14,1.85,1.51a16.64,16.64,0,0,0,4.83-2.88C225.9,94.21,226.29,93.48,227.13,93.65Zm-10.19,2.91c-.42-.72.73-2.09-.77-2.22-.95-.08-1.39,1-1.35,1.87.06,1.08.52,2.4,1.76,2.29C217.67,98.4,216.57,97.21,216.94,96.56Z"/><path class="cls-2" d="M364.66,77.9c2.13,1.65,3.57,3.24,3.94,5.2a57.31,57.31,0,0,0,3.87,12.61c1.12,2.52.11,3.67-2.6,3.53a2.11,2.11,0,0,0-.86,0c-5.3,2.1-11.07,1.12-16.48,2.5-2.16.55-2.83-.09-2-2.12.85-2.22.39-4.44.38-6.68,0-.61-.21-1.45.62-1.67s1.18.5,1.54,1a4.71,4.71,0,0,1,.8,3.71c-.39,2.1,0,2.47,2.11,2.19,1.51-.2,3-.5,4.5-.78a4.92,4.92,0,0,0,4-3.58c1.21-3.69.84-7.47.63-11.24C365,81.2,364.82,79.84,364.66,77.9Z"/><path class="cls-2" d="M337.61,95.85c-.11-1,.58-1.44,1.32-1.78,3.85-1.78,5.4-5.74,8.12-8.59.6-.63.45-1.4-.68-1.77s-2.44-3.57-2-4.71c.3-.79,1.05-.65,1.64-.82,2-.59,2.44-1.76,1.48-3.68a1.15,1.15,0,0,1-.15-.37c0-.48,2.65-3.34,3.19-3.28a4.85,4.85,0,0,1,3.8,2.18c.32.51-.2.94-.54,1.3-.6.63-1.25,1.22-1.84,1.85-.44.47-1,1-.67,1.71.39.94,1.1.3,1.68.25a3,3,0,0,1,2.91,1.1c.57.84-.26,1.62-.63,2.37a7.4,7.4,0,0,1-2.83,3c-4.92,3-7.86,7.81-11.05,12.37-.63.9-.88,2.66-2.15,2.26S337.78,97.16,337.61,95.85Z"/><path class="cls-1" d="M351,54.07c-2,.36-3.12-1.27-4.57-2.15a.58.58,0,0,1,0-1.06c1.83-1.19,1.66-2.88,1.24-4.66-.09-.4-.31-.88.14-1.2s.7,0,.95.27c1.8,2,4,3.63,4.32,6.58C353.21,53.52,352.83,54.44,351,54.07Z"/><path class="cls-3" d="M192.6,159l-.5.19c-.11-.29.09-.34.3-.38A1.8,1.8,0,0,0,192.6,159Z"/><path class="cls-2" d="M299.05,73.81c.48-1.53,0-3.3-.27-5.08-.1-.61-.14-1.46.73-1.54.69-.07.92.7,1,1.23a17.24,17.24,0,0,0,1.27,3.66c.38,1.08.51,2.13-.44,3-.47.42-.94,1-1.67.72S299,74.76,299.05,73.81Z"/><path class="cls-2" d="M273.16,70.94c0,2.22-4.17,5-6.19,4.11-.86-.37-1-1-.27-1.66l4.67-4.19a1,1,0,0,1,1.19-.22C273.28,69.43,273.14,70.23,273.16,70.94Z"/><path class="cls-2" d="M274,84.78c-.1.82.09,1.87-1.33,1.62-.6-.1-1.48,0-1.32-.94s.41-2.34,1.63-2.48C274,82.86,273.94,84,274,84.78Z"/><path class="cls-2" d="M216.94,96.56c-.36.66.73,1.84-.37,1.94s-1.7-1.22-1.76-2.29c0-.84.4-2,1.35-1.87C217.67,94.47,216.52,95.84,216.94,96.56Z"/><path class="cls-4" d="M480,103.08a21.65,21.65,0,0,1-1.8-1.35.79.79,0,0,0-.27-.29,2.63,2.63,0,0,1-.41-.69,4.16,4.16,0,0,1-1-.23c-.53-.3-1.14-.62-1.81-.94a13.47,13.47,0,0,0-1.61-.93,11.51,11.51,0,0,0-2.34-.84l-1.25-.52L463,94.79a106.23,106.23,0,0,0-22.16-4.11,231.47,231.47,0,0,0-33.31-.25c-4.53.23-9,.81-13.58,1.23a9.87,9.87,0,0,0,4.53.77c13-.09,25.95.95,38.47,4.9,3.28,1,6.65,2,9.48,4.11,1.38.25,2.39,1.2,3.56,1.86,6.8,3.83,12,9,14.79,16.47l.28-.27a1.18,1.18,0,0,1,.11.19,32.86,32.86,0,0,1,1.54,18c-1.67,9.22-6,17.35-11.45,24.86-8.7,12.08-19.59,22-31.38,31-1.94,1.48-4.17,2.67-5.56,4.83a22.3,22.3,0,0,0,4-2c11.8-7.73,23.43-15.7,34.18-24.89,9.34-8,17.93-16.65,24.75-26.93a52.91,52.91,0,0,0,7.2-15.22C491.25,119.15,488.27,109.71,480,103.08Z"/><path class="cls-1" d="M467,85.6c-5.4-4.32-11.7-6.95-18.29-8.87-18-5.21-36.24-5.27-54.65-3.65a9.38,9.38,0,0,0-3.6.53,3.37,3.37,0,0,0,2.72,1c9.25,1,18.44,2.4,27.18,5.68,4.35,1.63,9.18,2.58,12.25,6.65.24.31.52.1.78.14,6.71,1,13.47,1.73,20,3.54,3.81,1,7.71,1.87,11.1,4,0,0,3.24,1.78,5.22,2.67.05.1,2.33.79,3.38,1.27,1.48.67,2.68,2,4.41,2.09C476.11,94.26,472,89.58,467,85.6Z"/><path class="cls-2" d="M321.89,68a18.53,18.53,0,0,1,7.75-4.61c-.31,3.75,1.43,6.92,2.61,10.25a11.78,11.78,0,0,1,.68,2.72c.07.73.44,1.72-.5,2.14-.76.34-1.3-.41-1.91-.79s-.89-1.19-1.81-1.25c-.36,1.14.32,2,.86,2.77a3,3,0,0,1,.65,2.44c-.17.77-.28,1.79-1.2,1.88s-1.24-.87-1.39-1.65c-.32-1.63-.51-3.3-.9-4.91-.18-.74-.56-1.64-1.61-1.44s-.59,1.17-.58,1.78c.08,4.56.53,9.08-.16,13.69-.36,2.38-.28,5.31,1.89,7.34.62.58,1.24,1.35,2.25,1a2.1,2.1,0,0,0,1.32-2.1,59.14,59.14,0,0,1,.91-11.58c.23-1.36.56-1.69,1.74-1.17s2.27.52,2.55-.94c.84-4.42,1-8.92-1.46-12.83-1.84-2.89-2.81-5.59-1.68-8.95.36-1.08.63-2.6-.8-3.3a3.24,3.24,0,0,0-4,.9c-2.22,2.39-4.15,5-6.49,7.34-.46.45-1.06,1.28-.39,1.9S321.47,68.36,321.89,68Z"/><path class="cls-2" d="M266.44,77.86c1.08-.42,2.08-1,3.15-1.49,1.49-.65,3-.79,3.5,1.16s-.8,2.26-2.37,2.5c-2.73.42-3.83,2.32-3.09,5,.33,1.18.59,2.39,1,3.54,1.22,3.32,1.25,3.31,3.65.76.88-.94,1.47-1.12,1.81.45a8.5,8.5,0,0,0,1.63,3.53c.44.56.72,1.53,1.56,1.23s.8-1.31.65-2.1c-.53-2.75.26-5.54-.32-8.31a3.56,3.56,0,0,1,.84-3.08c2.29-2.25,3.23-5.36,5.13-7.85.47-.61,1.07-1.46,0-2s-1.16.53-1.47,1.11c-1,1.8-2.6,2.89-4.14,4.1-1,.8-1.27.36-1.35-.78-.15-2.11.62-3.37,2.81-3.55a4.63,4.63,0,0,0,2.38-1c1.11-.81,2.73-1.63,2.69-2.89,0-1.09-2-1.11-3-1.73a9.84,9.84,0,0,0-1.25-.43,10.74,10.74,0,0,0,.54,1.17c.51.72,1.29,1.69.17,2.17-1.52.65-3.11,1.52-4.91,1.06-.13,0-.24-.37-.25-.57-.09-2.15-.55-4.37,1.63-5.95a27,27,0,0,0,5.1-5.35,4.15,4.15,0,0,0,.16-5.41c-.33-.44-.64-1.11-1.34-.9s-.47.85-.47,1.32a8,8,0,0,1-2.28,5.28,23.78,23.78,0,0,1-5.3,4.5,4.92,4.92,0,0,0-2.08,1.88,10.17,10.17,0,0,1-3.16,3.52c-1.86,1.47-3.84,2.81-5.17,4.86-.86,1.31-1.34,2.66-.27,4S265.17,78.36,266.44,77.86Z"/><path class="cls-2" d="M338.87,77.75c.7,0,.74-.62.9-1.06,1.21-3.51,3.67-6,6.54-8.22,1.78-1.38,3.8-2.39,5.63-3.64a5.38,5.38,0,0,1,4.58-1c-.71.75-1.09,1.18-1.5,1.57s-.86,1-.57,1.52,1,.29,1.4.15a9.11,9.11,0,0,0,4.66-2.91c1.27-1.67.94-3.12-.86-4.21a9.73,9.73,0,0,0-8.16-.85,15.4,15.4,0,0,0-6.69,4.3,1.57,1.57,0,0,1-1.75.59c-.76-.35-.49-1.16-.37-1.73.28-1.27.7-2.51,1.08-3.75.25-.81.09-1.29-.88-1.18-1.71.2-4.5,3.19-4.35,4.92a8.83,8.83,0,0,1-1.29,5.63c-2,3.14-.72,6,.32,8.91A1.3,1.3,0,0,0,338.87,77.75Z"/><path class="cls-2" d="M355.92,98.17c-2.13.28-2.5-.09-2.11-2.19a4.7,4.7,0,0,0-.8-3.71c-.36-.51-.79-1.21-1.54-1s-.62,1.06-.62,1.67c0,2.23.47,4.45-.38,6.68-.78,2-.11,2.67,2,2.12,5.41-1.38,11.18-.4,16.48-2.5a2.1,2.1,0,0,1,.86,0c2.71.14,3.71-1,2.6-3.53a56.78,56.78,0,0,1-3.87-12.61c-.36-2-1.79-3.57-3.93-5.22.16,1.94.3,3.3.37,4.67.21,3.77.58,7.55-.63,11.24a4.94,4.94,0,0,1-4,3.58C358.92,97.67,357.43,98,355.92,98.17Z"/><path class="cls-2" d="M346.38,51.92c1.45.88,2.55,2.51,4.57,2.15,1.87.37,2.26-.55,2.07-2.22-.34-3-2.53-4.62-4.32-6.58-.24-.26-.57-.53-.95-.27s-.23.8-.14,1.2c.42,1.78.59,3.47-1.24,4.66A.58.58,0,0,0,346.38,51.92Z"/><path class="cls-2" d="M197.22,89.12c.15.77.22,1.93,1.33,2s1.78-.9,2.14-1.87a34.66,34.66,0,0,1,6.06-9.76,22.31,22.31,0,0,1,11.4-7.63c1.9-.55,3.72-.69,5.27.89.29.3.75.78,1.1.46a4.16,4.16,0,0,0,1-3.42,1.59,1.59,0,0,0-1.84-1.71c-2.16.37-4.55-.25-6.46,1.37a1.24,1.24,0,0,1-1.6.19c-.58-.46-.29-1.14,0-1.61q2.72-4.95,5.53-9.85a4.24,4.24,0,0,1,2.09-1.51c2-.92,2.67-2.46,2.11-4.63a15.81,15.81,0,0,1-.95-5.76c.36-1.22-.47-2.5-1.31-3.81s-1.08-.73-1.55.23C219,47.9,216.16,53,213.19,58c-4,6.63-8.93,12.52-13.65,18.6-.79,1-1.41,2.2-3,2.15-.63,0-1,.47-.9,1.21C196.15,83,196.62,86.07,197.22,89.12Z"/><path class="cls-2" d="M338.92,94.07c-.73.34-1.42.77-1.31,1.78.17,1.31.42,3,1.59,3.35s1.53-1.36,2.15-2.26c3.19-4.56,6.14-9.34,11-12.37a7.4,7.4,0,0,0,2.83-3c.37-.75,1.2-1.52.63-2.37a3,3,0,0,0-2.91-1.1c-.59,0-1.29.69-1.68-.25-.31-.73.23-1.24.67-1.71.59-.64,1.24-1.23,1.84-1.85.35-.36.87-.79.54-1.3a4.88,4.88,0,0,0-3.8-2.18c-.54-.06-3.23,2.8-3.19,3.28a1.07,1.07,0,0,0,.15.37c1,1.92.5,3.09-1.48,3.68-.59.18-1.34,0-1.64.82-.44,1.14.78,4.31,2,4.71s1.28,1.15.68,1.77C344.32,88.33,342.77,92.29,338.92,94.07Z"/><path class="cls-2" d="M292.33,156.54c10.5-4.09,15.82-13.42,14-24.43-1.12-6.78-5.77-13.85-15.85-13.68-16,.27-32,.18-48,.16-1.42,0-1.68.44-1.64,1.73.09,3.2.16,6.41,0,9.6-.1,1.78.6,2,2.1,2,7.12-.09,14.25-.06,21.38-.06v0c7.27,0,14.55,0,21.82,0,3.59,0,5.34,2,5,5.59-.42,4-4.2,8.94-9.78,9.05-5.89.11-11.78,0-17.67.12-1.3,0-1.4-.41-1.11-1.53.58-2.17,1-4.39,1.48-6.58.25-1.08.09-1.59-1.21-1.54-2.61.09-5.23,0-7.85,0-5.33.05-9.37,3.15-10.55,8.32-2.59,11.38-5,22.8-7.66,34.18-.37,1.61.2,1.65,1.43,1.64,4.87-.05,9.75-.09,14.62,0,1.38,0,1.84-.47,2.12-1.8,1.37-6.53,2.89-13,4.3-19.54.26-1.22.67-1.83,2.11-1.77,3.12.13,6.26.12,9.38,0a2.76,2.76,0,0,1,3,1.83c3.3,6.55,6.71,13,10.09,19.56.39.76.66,1.58,1.82,1.57,5.31-.06,10.62-.06,15.93-.08.79,0,1.24-.38.62-1-1.44-1.45-1.73-3.43-2.62-5.13-2.73-5.21-5.34-10.47-8.13-15.65C290.61,157.59,290.75,157.15,292.33,156.54Z"/><path class="cls-2" d="M212.41,103.89c.08,1,.54,1.47,1.56,1.09s2-.63,2.46-1.64a3.8,3.8,0,0,1,2.25-1.84c3.55-1.37,5.41-4.66,8.19-6.88a.67.67,0,0,0,.26-1c-.84-.18-1.23.55-1.73,1a16.69,16.69,0,0,1-4.83,2.88c-1.6.63-2-.11-1.85-1.51a5.37,5.37,0,0,1,.69-1.8c1.1-2,.67-3.13-1.54-3.45-1.26-.18-1.78-.89-1.41-1.91.74-2,.71-4.32,2.87-5.83,2.33-1.62,2-2.88-.46-4-.66-.3-1.33-.58-2-.91-1.84-.93-3.16-.37-4.23,1.3s-.28,2.6,1.16,3.48a2.73,2.73,0,0,1,1.4,2.78,3.16,3.16,0,0,1-2.88,2c-.87,0-1.74-.1-2.61-.11-.39,0-1.06-.17-1,.43a4.13,4.13,0,0,0,1.41,2.85c.57.53,1.26,1.08,2.1.37.59-.51,1.2-1,1.8-.06s.1,1.35-.42,1.93a10.44,10.44,0,0,1-4.6,2.78c-.51.18-1.3.2-1.19,1a1.79,1.79,0,0,0,1.32,1.32A2.64,2.64,0,0,0,211,98c1.67-.69,2.11.05,2,1.6S212.29,102.41,212.41,103.89Z"/><path class="cls-2" d="M347.59,180.64a30.46,30.46,0,0,0,14.49-3.44c5.63-3.08,9.13-7.65,9.22-14.25.09-6.83-2.84-12-9-15.24a29.28,29.28,0,0,0-8.41-2.87c-6.42-1.17-12.86-2.28-19.28-3.46-3-.55-4.43-3-3.32-5.85s3.6-3.86,6.48-3.89c5.59,0,11.19,0,16.79,0v-.19c5.6,0,11.2,0,16.8,0,1.41,0,1.72-.32,1.35-1.7-.87-3.21-1.69-6.45-2.34-9.71-.3-1.54-1-1.88-2.45-1.87-10.11.08-20.22,0-30.33.08a36.48,36.48,0,0,0-9.69,1.28c-9.18,2.56-14,9.33-13.71,19.15.26,8.11,5.88,14.27,15,15.86,6.79,1.19,13.66,1.94,20.49,2.85,2.2.3,3.93,1.13,4.29,3.57a5.37,5.37,0,0,1-3.06,5.52,10.38,10.38,0,0,1-4.88.9c-10.76,0-21.53.09-32.29.08-1.42,0-1.92.16-1.39,1.78,1.08,3.3,1.92,6.69,2.83,10,.27,1,.66,1.51,1.89,1.5C327.22,180.7,337.41,180.76,347.59,180.64Z"/><path class="cls-2" d="M306.59,69c-1-.11-2.17-.08-2.82-.92-2.41-3.11-5.36-6.12-4.25-10.56a3.12,3.12,0,0,0-.89-3.24,11.65,11.65,0,0,1-2.54-3.43c-.52-1.18-1.21-1.21-1.91.14a12.1,12.1,0,0,0-1.13,7.62c.66,4.39.37,8.83.92,13.23.1.77,0,1.78-.87,2s-1.58-.55-2.16-1.18-1.25-1.5-.49-2.08c1.59-1.21,1.76-2.22.2-3.49-.15-.12-.3-.46-.24-.59,1.41-2.73-1.13-2.24-2.28-2.67-1-.36-2.39-.72-3,.22s.71,1.7,1.17,2.54c.21.38.72.73.7,1.07-.06,1,1.56,2.28-.23,3.12-2,1-2,2.41-1.5,4.31a5,5,0,0,0,2.65,3.47c.57.3,1.15.74,1,1.53s-.74.81-1.27,1.06a4.85,4.85,0,0,1-3.19.14c-2.1-.44-2.62.12-2.11,2.1.87,3.37,2.18,4.09,5.56,3,.69-.22,1.35-.52,2-.8,1.19-.5,1.84,0,1.95,1.17.39,4.18.72,8.36,1.07,12.68a12.43,12.43,0,0,0,1.27,6.84c.19.43.28,1.12,1,.93s.49-.85.44-1.3c-.53-4.3.64-8.54.43-12.83a3.87,3.87,0,0,1,.3-1.92c1.17-2.26,1.06-4.73,1.3-7.15.46-4.63.27-5.41,4.95-7.33a11.54,11.54,0,0,0,5.54-5C309.08,70.13,308.55,69.2,306.59,69Z"/><path class="cls-2" d="M238.27,89.4c1.82,3.45,4.95,5.7,7.09,8.82,1.3,1.88,3.67,3.21,4.92,5.34a3,3,0,0,0,3.21,1.7c1.17-.15,3,.54,3.37-.62.46-1.33-1.28-2.06-2.27-2.83-4.84-3.79-10.15-7-13.75-12.25a8.86,8.86,0,0,1-1.74-6.26,1.82,1.82,0,0,1,1.12-1.72c3-1,5.67-2.88,8.84-3.48a4.56,4.56,0,0,0,2.22-1.31c1.15-1.08.79-1.84-.58-2.05-2.26-.35-3.56-1.82-4.64-3.59-.83-1.37-1.56-2.83-2.57-4.67a7,7,0,0,0,.89,4.55c.69,1.36,1.93,2.38,2.39,3.88.23.77.61,1.75-.33,2.12-1.83.73-3.45,1.84-5.23,2.67a.84.84,0,0,1-1,0c-.31-.32,0-.66,0-1,.37-1.78,1.71-2,3.16-1.93.67,0,1.34.19,1.68-.59.2-.47.35-1.06-.05-1.44a1.88,1.88,0,0,0-2-.39,8.89,8.89,0,0,0-1,.38c-1.5.8-1.64.06-1.35-1.17a11.42,11.42,0,0,0,.54-3.86,23.78,23.78,0,0,1,2.57-13.9c.37-.7.59-1.47.9-2.21s-.3-1.19-.87-1.47-1.3-.49-1.61.4c-.63,1.85-1.74,3.49-2.22,5.43a65,65,0,0,0-1.63,12.93c-.18,3.81-1.64,6.47-5.22,7.89-.58.23-1.14.93-1.77.47-.8-.57-.21-1.33,0-2,1.28-3.65,3.77-6.67,5.27-10.23,1-2.31,1.25-5.62-.23-7.66-.43-.59-1-.81-1.2.13-.79,3.35-2.74,6.24-3.73,9.47-1.22,4-1.83,8.19-4,11.88a1.85,1.85,0,0,0,.2,2.25c.66.68,1.29,0,1.93-.3,1.82-.93,3.09-2.66,5-3.4.7-.27,1.59-.83,2.11.18a1.77,1.77,0,0,1-.5,2.36c-1.21.63-2.2,1.54-3.5,2.11a87.92,87.92,0,0,0-8.18,4.49A1.06,1.06,0,0,0,224,90a3.41,3.41,0,0,0,1.62,2,.91.91,0,0,0,1.21-.65c1.36-3.37,4.84-4.19,7.36-6.16a1.11,1.11,0,0,1,1.41-.17c.55.4.29.92.21,1.39-.35,2.15-.81,4.28-1.06,6.43-.5,4.36-2,5.87-6.48,6.13-.54,0-1.5,0-.87.88a5.85,5.85,0,0,0,4.77,2.66c1.93,0,2.7-1.24,3.12-2.79a65.72,65.72,0,0,0,2.14-8.42C237.55,90.58,237.49,89.82,238.27,89.4Z"/><path class="cls-2" d="M231.22,149.88h-.16v-19.2c0-3.56,0-7.13-.05-10.69,0-.76.16-1.67-1.14-1.62-5.59.23-11.23-.39-16.77.47-7.68,1.19-13.56,5.43-18.58,11.26-10.55,12.25-21.29,24.34-31.91,36.54a3.48,3.48,0,0,1-3,1.34c-5.24-.06-10.47,0-15.71,0a28.1,28.1,0,0,1-9.82-1.73c-5.78-2.22-9.69-6.17-10.49-12.49-.68-5.4,1.45-10,5-13.87,4.83-5.24,11.09-7.36,18-7.58,8.21-.26,16.43-.18,24.65-.16,1.47,0,2-.33,2-1.91-.13-3.19-.11-6.4,0-9.6.05-1.51-.35-2-1.91-2-8.29.1-16.58,0-24.87.11a58.34,58.34,0,0,0-18.05,2.56c-12.27,4.09-21.74,11.29-24.79,24.53-3.14,13.62,1.48,24.93,14.53,31a48.09,48.09,0,0,0,18.35,4.19c10.46.48,20.94-.09,31.41.19,3.43.09,5.88-.71,7.87-3.61a22.35,22.35,0,0,1,14.88-9.42c7.49-1.43,15.07-.83,22.62-1,1.15,0,1,.8,1,1.51,0,3.49.08,7,0,10.47,0,1.35.25,1.93,1.77,1.89q6.65-.17,13.31,0c1.59,0,1.89-.53,1.88-2C231.19,169.37,231.22,159.63,231.22,149.88Zm-18.79,6.34c-4.71,0-9.44-.31-14.11.75a40.41,40.41,0,0,0-5.72,2l-.5.2c-.11-.29.09-.34.3-.38,2.7-3.78,6-7.08,9-10.6,4.12-4.8,8.3-9.55,12.86-14.78v6.44c0,4.8,0,9.59.06,14.39C214.35,155.74,214,156.23,212.43,156.22Z"/></svg>