<?xml version="1.0" encoding="UTF-8"?>
<svg width="619px" height="300px" viewBox="0 0 619 300" version="1.1" xmlns="http://www.w3.org/2000/svg" xmlns:xlink="http://www.w3.org/1999/xlink">
    <title>logo</title>
    <defs>
        <polygon id="path-1" points="0.665 0.320543415 154.675 0.320543415 154.675 174.6596 0.665 174.6596"></polygon>
        <polygon id="path-3" points="0 0.0311 205.2975 0.0311 205.2975 100.1731 0 100.1731"></polygon>
    </defs>
    <g id="持续交付平台" stroke="none" stroke-width="1" fill="none" fill-rule="evenodd">
        <g id="logo">
            <path d="M389.5096,16.2577 C389.2656,15.1567 393.6386,14.8387 392.6456,9.7647 C392.6456,9.7647 390.7986,4.0537 393.4816,6.0847 C393.4816,6.0847 398.7076,11.2977 399.2126,12.6477 C399.2126,12.6477 401.2686,15.1737 400.5726,17.5387 C400.5726,17.5387 402.4276,21.0967 397.8706,20.5917 C397.8706,20.5917 393.6216,20.7867 392.6106,18.6447 C392.4806,18.2957 389.7706,17.3637 389.5096,16.2577" id="Fill-1" fill="#004098"></path>
            <path d="M377.454,33.7533 C376.549,30.3603 385.729,23.0433 386.252,26.5803 C386.252,26.5803 383.029,34.4193 384.205,36.2703 C384.205,36.2703 385.154,37.0853 386.739,36.1833 C388.3,35.2523 391.408,31.4103 393.97,30.3603 C396.565,29.3023 401.268,26.8243 406.652,28.1743 C406.652,28.1743 412.392,29.1933 413.752,32.5433 C413.752,32.5433 414.578,38.1303 408.334,39.6513 C408.334,39.6513 406.808,41.9113 405.293,41.1713 C405.293,41.1713 400.721,42.8603 403.97,39.1233 C403.97,39.1233 411.773,35.6573 404.623,35.5823 C402.846,35.5823 399.213,36.2703 398.071,38.4613 C398.071,38.4613 394.179,39.6513 391.626,42.3163 C391.626,42.3163 381.009,48.7223 378.978,58.2133 C378.978,58.2133 376.383,59.4893 375.712,55.9533 C375.712,55.9533 372.045,47.9003 374.579,44.5463 C374.579,44.5463 378.577,37.8603 377.454,33.7533" id="Fill-3" fill="#004098"></path>
            <path d="M391.4432,52.4677 C391.7222,51.4187 394.4752,50.2647 394.6832,48.5957 C394.6832,48.5957 396.0262,45.8877 400.2152,48.5957 C400.2152,48.5957 404.1172,50.6007 402.7672,51.9707 L397.8712,57.0327 C397.8712,57.0327 396.0602,60.9357 401.0852,58.9307 C401.0852,58.9307 405.9912,59.7677 405.5032,61.6067 C405.5032,61.6067 404.4402,67.2337 397.5232,70.5197 C394.4402,72.0077 382.3482,87.2407 381.8432,89.2537 C381.8432,89.2537 378.7872,96.0217 377.4542,91.5957 C377.4542,91.5957 374.3872,86.7137 376.8532,85.2777 C379.3182,83.8047 382.1922,82.1967 382.8632,81.3137 C383.5162,80.4567 386.4002,76.7787 387.0712,75.9427 C387.7672,75.0547 389.2652,73.0647 390.4332,71.8657 C390.4332,71.8657 392.4802,70.5197 391.1212,68.0047 C391.1212,68.0047 386.9142,68.3257 387.4202,64.6417 C387.4202,64.6417 385.7292,59.2237 387.8892,59.3807 C387.8892,59.3807 391.6262,59.3807 392.2962,57.1887 C392.2962,57.1887 394.3172,53.9877 392.6452,53.4967 C392.6452,53.4967 391.1992,53.5357 391.4432,52.4677" id="Fill-5" fill="#004098"></path>
            <path d="M397.1229,83.0072 C397.1229,83.0072 396.8609,76.7702 400.7209,81.8062 C400.7209,81.8062 402.7679,84.8722 401.7559,87.5642 C401.7559,87.5642 400.2159,92.6402 404.7789,91.2822 C404.7789,91.2822 410.9379,90.1902 413.0459,89.9412 C414.9099,89.6892 415.7989,88.5402 417.5229,87.0022 C419.2289,85.4372 420.2319,78.1082 420.2319,76.7482 C420.2319,76.7482 420.1629,68.3252 419.9799,66.9802 C419.9799,66.9802 419.6479,61.5652 419.4749,60.9012 C419.4749,60.9012 418.6379,57.6892 421.1629,60.0502 C421.1629,60.0502 425.4409,65.1812 425.6929,67.3412 C426.1989,71.2212 427.9239,78.2702 428.5859,79.8102 C429.0909,81.0252 428.7249,81.8062 430.7269,84.2052 C431.4079,85.0382 431.6169,87.8302 432.2969,88.5942 C433.0799,89.4742 432.1399,93.7312 428.0709,92.9412 C423.1329,92.0152 420.6849,95.8292 413.3949,95.1542 C413.3949,95.1542 406.4779,95.1542 405.6499,95.8292 C405.6499,95.8292 399.3959,96.5272 398.7079,97.2022 C398.7079,97.2022 394.4229,97.8722 396.6869,93.1462 C398.2899,89.7792 397.1229,83.0072 397.1229,83.0072" id="Fill-7" fill="#004098"></path>
            <path d="M348.9344,40.4921 C347.9244,41.5721 346.8884,45.4441 349.9024,43.3351 C353.8574,40.5431 355.5644,37.6601 359.8404,36.6451 C361.8614,36.1661 363.2554,33.4011 363.4644,36.0751 C363.4644,36.0751 363.2554,42.1721 364.6144,44.0281 C364.6144,44.0281 368.3414,53.0961 368.5434,54.9771 C368.7954,56.8101 369.7184,62.4761 364.6144,58.2131 C363.9354,57.6201 363.2554,57.2991 362.7504,56.3661 C362.7504,56.3661 360.6954,55.3371 361.9494,58.4131 C362.7154,60.2911 364.2574,61.4791 364.2754,62.7681 C364.5974,68.8611 359.9104,70.6851 359.3524,60.9661 C359.0474,55.5951 357.2284,53.6751 355.0154,54.9981 C355.0154,54.9981 355.1804,58.5561 355.1804,60.5961 C355.1804,62.5861 356.7054,71.1871 354.8414,77.9471 C354.2404,80.0981 355.2424,83.5351 355.5294,87.2411 C355.6774,89.3311 360.4154,95.5131 362.6124,91.7841 C362.6124,91.7841 364.3354,90.2721 363.6124,83.8621 C363.2384,80.5121 363.3864,77.4991 364.4754,74.9281 C364.8234,74.0561 365.7644,73.6821 365.3114,71.6961 C364.9454,70.1991 364.4754,66.9801 368.3414,69.1851 C368.3414,69.1851 371.7224,71.1971 372.0444,66.4741 C372.0444,66.4741 373.2384,60.5961 373.0644,59.0661 C373.0644,59.0661 373.1864,53.7831 370.2064,47.7281 C368.7954,44.8891 364.4754,40.4921 366.3034,36.7761 C366.3034,36.7761 368.0814,29.2891 366.4964,27.6651 C365.4864,26.6271 361.9494,26.8761 360.7564,27.6651 C358.0654,29.4601 355.2244,34.0021 354.0054,35.2521 C352.7674,36.4881 350.7654,38.5751 348.9344,40.4921" id="Fill-9" fill="#004098"></path>
            <path d="M273.8539,72.2933 C273.8539,72.2933 270.9669,71.8313 270.3869,71.7313 C268.5359,71.3013 271.4549,66.5783 272.0379,66.2693 C272.5829,65.9873 273.0089,66.1433 273.0089,66.1433 C274.1589,66.7133 274.1589,67.8593 274.1589,67.8593 C274.4519,69.8593 273.8539,72.2933 273.8539,72.2933 M269.1589,52.4783 C267.6609,53.0773 263.5239,54.2023 263.5239,54.2023 C259.5039,52.4783 263.5239,50.1733 263.5239,50.1733 L269.5859,44.7383 C272.0379,42.2853 273.0089,44.6073 273.0089,46.0183 C273.1089,52.1283 270.6219,51.9073 269.1589,52.4783 M278.7449,51.4183 C278.8059,50.3123 280.9319,49.0503 283.0529,49.0273 C285.7219,49.0273 288.9799,45.7263 288.9799,45.7263 L290.5479,44.3273 C292.2949,43.0573 291.5849,42.0363 290.5689,41.6963 C287.9179,40.8393 286.9189,40.5173 285.2299,39.5513 C283.5799,38.5743 284.7769,40.8213 285.3959,41.4023 C287.3729,43.2773 286.6279,45.1123 284.3239,45.4253 C282.6389,45.6483 279.8429,46.5713 279.8429,46.5713 C276.9719,48.3213 277.2299,45.3563 277.2299,45.3563 C277.2299,45.3563 276.3759,39.2933 278.2359,37.4563 C280.0959,35.6343 282.9439,33.3743 282.9439,33.3743 L288.4009,27.0453 C292.1299,21.5843 287.1029,17.4303 287.1029,17.4303 C285.2299,15.7173 285.3789,20.1693 285.3789,20.1693 C285.8319,25.9923 276.5939,33.1693 273.1269,35.1903 C269.6779,37.1943 269.4069,39.1933 269.4069,39.1933 C268.8419,40.9133 264.2859,44.1373 264.2859,44.1373 C262.8179,45.0203 260.0959,47.4383 260.0959,47.4383 C254.0679,53.3433 255.2309,55.6293 255.2309,55.6293 C256.0849,61.1053 261.5459,58.5133 262.9089,57.8043 C264.3079,57.1253 270.6219,53.0113 272.4559,56.4933 C273.1999,57.9603 273.4179,59.5443 272.7259,60.1113 C272.0639,60.6653 271.5629,61.7723 270.1689,61.6753 C266.6639,61.4443 265.3219,63.6583 263.8329,64.9733 C262.6259,66.0383 264.3769,70.4303 264.3769,70.4303 C264.2859,72.7413 266.9719,78.5253 266.9719,78.5253 C268.1359,82.4053 271.1499,76.9363 271.1499,76.9363 C272.8919,74.7893 273.8709,75.2203 273.8709,75.2203 C274.1589,76.5083 275.2699,80.7513 276.1189,81.6923 C276.9369,82.5773 277.7559,84.2523 277.7559,84.2523 C280.3389,87.0013 281.1319,82.3853 280.2779,80.9653 C279.4069,79.5713 280.5139,75.3323 280.5139,75.3323 C281.6769,74.7623 280.0959,71.8653 280.0959,71.8653 C279.2239,70.2803 280.4969,64.9733 280.4969,64.9733 C280.6399,63.6743 283.2189,60.6693 283.2189,60.6693 C285.5219,59.7943 286.5199,56.6443 286.5199,56.6443 C286.8119,54.7803 288.9799,51.7723 288.9799,51.7723 C291.6939,49.6023 290.2789,47.2983 290.2789,47.2983 C288.9799,46.4433 287.5559,49.3403 286.9559,50.3123 C286.3929,51.3053 284.6339,52.5253 284.1059,53.1573 C283.5099,53.8223 280.6569,56.1083 280.6569,56.1083 C278.0919,58.2483 278.4789,55.3903 278.4789,55.3903 C278.4789,55.3903 278.6799,52.5413 278.7449,51.4183" id="Fill-11" fill="#004098"></path>
            <path d="M317.412,54.4721 C315.116,56.9181 314.254,53.7591 314.254,53.7591 C314.473,49.0271 315.142,49.2051 314.172,45.4691 C313.766,43.9141 313.692,43.1431 313.963,42.1321 C314.254,41.1371 315.116,40.9751 315.116,40.9751 C316.123,40.9751 316.85,43.1431 316.85,43.1431 C316.558,44.7391 317.586,46.0181 317.586,46.0181 L318.988,49.7491 C320.312,52.9171 317.412,54.4721 317.412,54.4721 M326.323,44.2921 C321.201,44.5151 318.883,39.1231 318.605,38.0171 C318.379,36.9161 316.632,35.0771 316.632,35.0771 C313.331,32.7951 315.762,24.5721 315.762,24.5721 C316.322,22.8341 312.891,19.3711 311.533,18.5931 C310.177,17.7781 311.079,16.3711 309.136,14.2201 C307.202,12.0771 306.776,15.7181 306.776,15.7181 C305.779,17.2951 304.942,18.5931 304.781,22.0511 C304.298,30.0771 306.614,38.6541 305.87,41.2061 C305.251,43.3661 306.071,47.4381 306.071,47.4381 C306.912,50.3121 305.217,52.1931 305.217,52.1931 C303.962,53.1571 297.394,47.8691 301.332,45.8531 C303.219,44.9081 303.527,43.3351 302.472,42.8611 C301.424,42.3941 300.226,40.6431 300.478,39.6861 C300.731,38.6841 302.555,37.8131 301.332,37.3991 C300.1,36.9761 296.393,34.9421 292.473,35.7691 C289.534,36.3881 294.634,39.9261 296.032,43.5751 C297.394,47.1841 295.016,47.2641 293.71,47.8691 C290.587,49.3751 291.911,51.9811 292.547,54.7811 C293.266,57.7241 294.163,58.0701 295.723,58.9391 C301.767,62.2551 295.831,64.0881 293.997,64.2671 C291.402,64.5271 292.708,63.8931 288.936,63.7131 C285.178,63.5081 288.753,69.9551 288.753,69.9551 C289.189,72.9641 292.513,74.1321 299.751,70.7041 C301.224,70.0331 301.767,70.2811 301.767,70.2811 C302.621,70.4301 302.921,73.6001 302.921,73.6001 C302.472,74.6111 303.164,77.1061 303.492,78.4911 C303.793,79.8591 303.04,83.9711 303.762,86.2731 C304.472,88.5951 304.664,92.0151 304.381,95.6431 C304.111,99.3101 307.129,105.4201 307.129,105.4201 C309.864,107.1551 308.3,100.7381 308.365,99.6321 C308.409,98.5211 308.409,94.6841 309.028,92.1541 C309.646,89.6281 309.089,80.9051 309.808,79.6551 C311.567,76.6541 311.641,73.0641 312.042,69.8451 C312.403,66.6011 311.039,59.1321 318.988,56.7981 C324.668,55.1331 327.507,50.6001 327.507,50.6001 C331.793,45.5961 328.631,44.1841 326.323,44.2921" id="Fill-13" fill="#004098"></path>
            <path d="M190.3446,2.2777 C190.3446,2.2777 191.3256,-1.6813 192.6316,0.8407 C193.8996,3.3787 195.4456,3.9587 195.0446,7.6477 C194.4656,13.0907 197.5316,16.4977 196.6776,20.2527 C196.6776,20.2527 196.6776,22.8347 192.6666,24.2587 C192.6666,24.2587 189.6926,24.9647 187.3406,30.4527 C185.0056,35.8877 181.4516,40.0647 180.7416,42.3517 C180.7416,42.3517 178.8736,46.9417 183.6296,44.6547 C183.6296,44.6547 186.0596,42.4127 189.2916,42.6647 C190.3156,42.7297 190.8896,43.0917 192.5236,42.4767 C194.1566,41.8937 195.9676,42.2017 196.8216,44.6547 C196.8216,44.6547 196.5336,52.3207 194.1176,50.4687 C191.7396,48.5957 191.6136,47.7207 188.7826,47.6587 C181.5216,48.0347 171.5786,53.9627 165.9506,61.3257 C165.9506,61.3257 159.4696,69.8797 157.3546,74.5677 C156.6226,79.1957 152.2276,80.7507 152.0276,77.5337 C152.0276,77.5337 150.8216,75.6727 150.4116,70.9167 C150.0156,66.1617 149.6316,63.9137 149.0056,61.4447 C148.3656,59.0007 150.0156,59.1707 152.6116,59.1707 C152.6116,59.1707 172.7016,34.3147 175.1406,29.2897 L178.8736,23.4017 C178.8736,23.4017 182.8846,16.8107 184.0476,14.9337 C184.0476,14.9337 185.2806,9.7517 188.3646,6.5937 C189.7096,5.1737 190.3446,2.2777 190.3446,2.2777" id="Fill-15" fill="#004098"></path>
            <path d="M181.0165,90.7548 C181.0165,90.7548 178.1205,88.0208 180.1535,85.3018 C180.1535,85.3018 182.1745,82.2968 183.1945,85.4518 C183.1945,85.4518 182.6105,87.0278 182.9365,88.8528 C183.2815,90.6548 183.9005,92.6408 181.0165,90.7548 M197.8245,83.6998 C196.4955,85.0068 194.3825,86.5778 194.3825,86.5778 C192.9285,88.0208 187.2045,90.1758 187.2045,90.1758 C184.2085,89.5888 186.3335,85.0068 186.3335,85.0068 C187.7665,84.6928 189.2915,78.3288 184.7525,78.7038 C180.2325,79.0348 182.4665,73.9478 182.4665,73.9478 C183.1945,73.0828 184.2085,68.0698 184.2085,68.0698 C186.6215,67.3498 191.6695,62.2548 187.9285,60.7748 C184.2085,59.2888 187.0485,60.4038 182.1745,58.1558 C177.2925,55.8958 175.3325,62.4248 175.3325,62.4248 C174.4275,64.5848 178.3985,65.9038 179.1615,66.7628 C180.2325,68.0048 176.3695,66.9758 177.1665,67.9698 C177.7585,68.6838 182.0315,69.3708 180.5895,70.5198 C178.1945,73.0828 176.7665,74.1878 174.4275,73.8228 C167.8725,72.7418 169.5975,74.1878 169.9145,75.1628 C171.5565,80.3188 174.4965,79.8858 174.4965,79.8858 C175.1405,79.9898 176.4385,77.5988 177.6105,78.4178 C178.8175,79.2148 178.7245,80.9818 178.7245,80.9818 C178.7245,80.9818 176.2035,85.1198 170.8335,86.5778 C165.4765,88.0688 169.4525,89.5538 170.0625,90.4948 C170.6685,91.4398 174.8455,89.5888 174.8455,89.5888 C179.2175,89.8938 174.7055,96.6358 175.7245,100.6688 C176.1685,102.5468 178.7245,101.0818 180.0535,100.6028 C181.3605,100.1098 185.5725,95.7338 187.9285,94.9108 C190.2535,94.1058 192.5235,90.3158 192.5235,90.3158 C193.0845,90.0408 196.1335,88.1698 198.6935,85.0068 C200.7415,82.4858 198.5855,82.9908 197.8245,83.6998" id="Fill-17" fill="#004098"></path>
            <path d="M211.4511,32.0072 C212.1601,30.9142 211.9041,24.9652 214.3391,28.5742 C214.3391,28.5742 215.2921,32.7302 216.0811,34.0282 C216.8261,35.3392 217.0791,38.3392 214.2041,40.6272 C214.2041,40.6272 211.3991,48.0352 209.3301,50.3962 C207.2221,52.7562 206.4431,56.5542 205.7161,57.4332 C205.7161,57.4332 203.7211,62.8912 209.1911,59.3162 C209.1911,59.3162 216.1331,55.6302 216.3331,53.4002 C216.5251,51.1952 216.6431,49.2242 217.3531,45.9532 C217.3531,45.9532 218.2021,25.8102 222.2701,20.4912 C223.3241,19.1112 223.2501,16.0792 224.8301,16.3712 C224.8301,16.3712 229.4041,17.6692 226.9781,19.8072 C226.9781,19.8072 227.0081,21.4322 224.9571,24.2592 C222.3951,27.8652 220.7981,42.6332 221.6691,44.2192 C221.6691,44.2192 222.0871,47.9642 221.3811,49.1152 C221.3811,49.1152 219.2741,55.5172 222.5401,53.4262 C225.7891,51.2792 228.6941,52.6412 228.3671,53.9872 C228.1891,54.7382 227.9661,57.2332 225.7191,56.2492 C224.7571,55.8182 223.9211,56.3312 221.6691,56.6972 C221.6691,56.6972 220.1831,58.2912 220.3451,59.3162 C220.3451,59.3162 218.2421,62.8912 223.1071,60.5962 C223.1071,60.5962 226.6431,58.2132 228.5681,57.5812 C229.8751,57.1802 232.8711,57.1592 230.0001,51.5492 C230.0001,51.5492 225.4111,46.2312 225.4111,42.3512 C225.4111,42.3512 224.3951,38.9022 226.3991,41.0602 C226.3991,41.0602 229.5821,50.6902 235.4451,52.9952 C235.4451,52.9952 240.4011,53.2352 238.9121,55.2902 C237.3881,57.3412 235.8371,58.3792 230.8201,59.5672 C229.4041,59.8672 223.3241,62.4242 222.1791,63.5662 C222.1791,63.5662 220.8891,64.5622 220.3101,63.7132 C220.3101,63.7132 217.9061,64.7502 218.3331,68.1982 C218.3331,68.1982 217.3531,72.7252 220.3451,75.7172 C223.3021,78.7032 225.5711,83.0372 226.9511,84.1872 C228.3151,85.3592 240.2931,94.6332 243.5591,96.9272 C246.8651,99.2452 248.8061,101.9612 245.2661,101.9452 C241.7641,101.8922 238.5851,102.8472 237.1691,100.6692 C235.7711,98.4702 235.2841,97.3672 231.8691,93.6042 C228.4321,89.8752 223.8301,84.8542 222.3951,83.1382 C222.3951,83.1382 218.1151,79.1962 217.9841,78.0432 C217.9841,78.0432 216.9871,74.4102 215.9721,77.8392 C215.9721,77.8392 215.8071,81.3952 215.1011,83.0072 C214.4091,84.6492 212.8931,91.4872 212.3051,93.1462 C211.1801,96.2872 209.8451,97.3452 208.1331,97.3602 C205.9511,97.3672 203.8471,97.7642 199.6351,93.2562 C198.8821,92.4462 198.5471,91.0352 203.1671,92.0492 C203.1671,92.0492 210.4891,92.3702 211.4511,82.2972 C211.6171,80.7512 212.0131,76.0962 212.8931,74.3922 L213.5031,69.7672 C213.5031,69.7672 212.7751,68.1392 209.9831,70.0332 C207.1701,71.9422 201.4691,75.4082 200.2191,76.6232 C198.9561,77.8732 199.3171,79.9892 197.6931,80.6952 C196.7521,81.1172 194.9881,79.2662 194.5171,77.8392 C194.0471,76.4312 193.2461,75.6722 197.2571,73.9482 C197.2571,73.9482 204.4261,69.9332 205.5891,69.3542 C205.5891,69.3542 207.6061,67.3492 209.3301,67.7812 C209.3301,67.7812 212.3141,65.9032 212.7751,65.0462 L214.3391,64.6412 C214.3391,64.6412 216.0811,60.0102 213.7771,59.8902 C213.7771,59.8902 210.5981,59.8902 208.7471,61.8802 C208.7471,61.8802 205.1361,64.9122 203.8651,65.3242 C203.8651,65.3242 200.1801,68.7992 199.5831,65.3242 C199.0301,61.8502 199.8931,64.1062 201.9961,58.8842 C203.4681,55.2252 202.8841,54.3112 204.8621,49.9802 C205.7891,47.9642 205.7161,42.0632 208.0321,40.2042 C208.0321,40.2042 210.4981,33.5612 211.4511,32.0072" id="Fill-19" fill="#004098"></path>
            <path d="M460.6932,51.7191 C460.4312,52.5251 460.9982,53.3161 464.6652,53.6481 C493.2002,56.4741 516.0482,63.3651 531.3882,74.1871 C558.0082,77.1061 577.6852,83.1731 591.1342,91.7261 C594.4102,93.3221 597.4502,95.0461 600.1492,96.9271 C591.4912,59.5751 533.0002,43.9141 460.6932,51.7191" id="Fill-21" fill="#004098"></path>
            <path d="M549.7147,96.0687 C550.8207,98.6907 551.6577,101.4087 552.2247,104.2617 C563.0417,158.9737 465.8667,246.3457 341.7757,296.3247 C342.7157,299.8617 344.4057,299.9937 358.6747,296.1867 C386.0087,288.8867 456.9997,261.1707 503.4447,233.3847 C503.9057,233.1227 504.3937,232.8337 504.9437,232.5127 C509.0357,230.0217 513.0957,227.4427 517.1037,224.8467 C559.7147,196.5707 582.9387,162.8107 580.2807,133.0407 C579.9597,129.1257 579.1577,125.4277 577.9207,121.9177 C572.4167,111.1617 562.7297,102.5197 549.7147,96.0687" id="Fill-23" fill="#004098"></path>
            <g id="编组" transform="translate(464.000000, 78.010000)">
                <mask id="mask-2" fill="white">
                    <use xlink:href="#path-1"></use>
                </mask>
                <g id="Clip-26"></g>
                <path d="M153.954,44.0656 C151.952,33.9166 145.827,25.5276 136.149,18.9176 C133.45,17.0356 130.41,15.3126 127.135,13.7166 C100.35,0.7696 55.777,-2.7984 0.665,3.0376 C0.752,3.9136 1.109,4.0566 12.895,4.0746 C42.267,4.1446 67.318,8.8996 85.715,18.0586 C98.729,24.5096 108.417,33.1516 113.921,43.9076 C115.94,47.7756 117.388,51.9056 118.24,56.3296 C124.808,89.5566 97.091,130.4616 48.835,166.6806 C39.392,173.7886 39.392,173.7886 40.019,174.6596 C115.429,128.8506 161.036,79.7146 153.954,44.0656" id="Fill-25" fill="#8EC31F" mask="url(#mask-2)"></path>
            </g>
            <path d="M302.2548,123.3558 L221.0898,123.3558 L221.0898,144.5168 L292.9738,144.5168 C308.8278,144.5168 300.7528,168.0888 285.2518,168.0888 L255.0658,168.0888 L258.5498,152.6798 L243.1718,152.6798 C239.4778,152.6798 235.7548,153.9118 232.6308,156.3718 C229.4958,158.8778 227.4958,162.2528 226.6818,165.8578 L213.7558,223.1838 L242.6528,223.1838 L250.9268,186.4078 L271.9288,186.4078 L290.7668,223.1838 L319.6858,223.1838 L300.2268,185.2488 C313.4478,181.6498 324.8418,169.8138 326.2008,156.1158 C327.7948,139.9148 319.5898,123.3558 302.2548,123.3558" id="Fill-27" fill="#004098"></path>
            <path d="M402.6971,166.0116 L371.1131,160.3446 C361.7571,159.0206 362.8731,144.5166 376.6531,144.5166 L432.5401,144.5166 L427.4011,123.2556 L376.0261,123.2556 C355.0151,123.2556 341.1831,131.9526 338.7601,148.7356 C335.5821,170.5006 351.0611,179.8306 363.5881,181.5996 L395.4161,185.9106 C405.9381,187.1496 403.6211,201.9046 390.7641,201.9046 L334.4581,201.9046 L340.4081,223.1836 L340.7131,223.1836 L347.2111,223.1836 L388.6901,223.1836 C418.0531,223.1836 429.5451,208.3836 429.5451,194.7616 C429.5451,177.9326 418.5511,169.6216 402.6971,166.0116" id="Fill-29" fill="#004098"></path>
            <g id="编组" transform="translate(0.000000, 123.010000)">
                <mask id="mask-4" fill="white">
                    <use xlink:href="#path-3"></use>
                </mask>
                <g id="Clip-32"></g>
                <path d="M178.4725,60.3571 L165.6765,60.3571 C158.3645,60.3571 147.6365,61.1591 140.2945,67.4481 L140.2685,67.4481 L178.4725,23.7811 L178.4725,60.3571 Z M183.9005,0.0311 C177.6375,0.0311 171.2855,1.3121 165.1985,4.0601 C159.1435,6.7951 153.9705,10.7281 149.8325,15.4321 L93.8925,78.9281 L68.1305,78.9281 C55.7225,78.9281 46.4855,76.0091 40.4785,70.2441 C28.5885,58.8601 31.9035,40.7461 45.6145,29.9751 C52.7655,24.3341 62.6035,21.5291 75.0905,21.5291 L112.7775,21.5291 L112.7775,0.2531 L69.8985,0.2531 C49.8605,0.2531 33.5715,4.9191 21.0585,14.2301 C8.5725,23.5661 1.6385,35.6101 0.2485,50.4021 C-1.1935,65.8781 3.6335,78.0741 14.6125,86.9081 C25.6325,95.7581 42.0955,100.1731 64.0195,100.1731 L75.1645,100.1731 L103.3695,100.1731 L111.6275,100.1731 L121.4665,88.9281 L121.3915,89.0251 C127.5635,82.9181 137.6375,78.1081 155.7115,78.1081 L178.4725,78.1081 L178.4725,100.1731 L205.2975,100.1731 L205.2975,0.0311 L183.9005,0.0311 Z" id="Fill-31" fill="#004098" mask="url(#mask-4)"></path>
            </g>
        </g>
    </g>
</svg>